<svg height="512" width="512" xmlns="http://www.w3.org/2000/svg"><path fill="#f0a024" d="M1.207.711h510.576v510.578H1.207z"/><path fill="#373122" d="M23.669 23.179h465.646v465.646H23.669z"/><path d="M177.76 291.347l-18.431 61.119c-.303 2.109-1.21 2.813-3.021 2.813h-30.82c-2.113 0-2.714-1.057-2.113-3.511 16.317-53.748 43.809-143.321 63.144-204.092.908-3.511 1.815-7.025 2.417-19.32 0-1.403.908-2.107 1.815-2.107h41.696c1.508 0 1.811.352 2.416 1.756 22.354 72.011 46.827 151.4 69.788 224.113.605 2.104 0 3.161-1.811 3.161h-33.841c-1.511 0-2.115-.703-2.716-2.108l-19.339-61.823H177.76zm61.027-34.427c-6.043-23.535-20.848-70.956-26.887-95.545h-.303c-4.535 23.183-16.918 62.877-25.983 95.545h53.173zm96.491-117.389c0-12.996 8.607-21.776 20.183-21.776 12.172 0 19.595 8.78 19.595 21.776 0 13.35-8.016 21.78-19.889 21.78-11.877 0-19.889-8.43-19.889-21.78zm2.076 47.773c0-2.107.592-2.808 2.08-2.808h31.463c1.782 0 2.379.351 2.379 2.808v165.098c0 1.76-.597 2.808-2.379 2.808h-30.871c-1.78 0-2.672-.698-2.672-3.157V187.304z" fill="#f0a024"/></svg>