<svg height="512" width="512" xmlns="http://www.w3.org/2000/svg"><path fill="#4fc7ec" d="M1.207.711h510.576v510.578H1.207z"/><path fill="#242238" d="M23.669 23.179h465.646v465.646H23.669z"/><path d="M125.389 124.051c0-1.76.302-2.459 1.811-2.459 11.48-.354 34.144-.703 57.105-.703 59.215 0 81.802 34.454 82.104 75.205 0 55.848-41.623 77.024-86.033 77.024h-18.734v79.795c0 2.108-.601 2.813-2.114 2.813h-32.026c-1.509 0-2.114-.704-2.114-2.459V124.051zm36.254 114.996c2.42.35 6.95.699 19.642.699 23.864 0 46.826-6.801 46.826-41.929 0-28.102-15.406-42.536-43.805-42.536-11.783 0-20.243.35-22.663.704v83.062zm180.176-26.256c-14.549 0-18.405 9.099-18.405 15.773 0 8.433 3.856 12.997 26.123 23.537 30.577 14.753 43.64 27.752 43.64 53.04 0 35.129-22.859 55.115-55.517 55.115-15.733 0-35.585-1.5-48.054-10.632-1.188-.704-1.782-1.756-1.782-3.516v-32.316c0-1.756 1.189-2.459 2.08-1.756 15.436 11.592 32.652 14.886 48.088 14.886 13.658 0 18.406-9.103 18.406-16.829 0-9.133-3.299-14.404-24.675-24.59-30.577-14.754-43.306-27.432-43.306-53.074 0-28.455 21.337-51.958 56.368-51.958 18.107 0 30.871.485 39.186 6.102 1.482 1.406 1.781 2.459 1.781 4.568v28.804c0 2.105-1.188 3.163-2.672 2.105-10.687-7.022-25.825-9.259-41.261-9.259z" fill="#4fc7ec"/></svg>